<svg xmlns="http://www.w3.org/2000/svg" xmlns:xlink="http://www.w3.org/1999/xlink" width="1196" height="247" viewBox="0 0 1196 247">
  <defs>
    <path id="a" d="M15.2 102.2a59.8 59.8 0 0 0 10 1.5l5.4.2c3.2 0 6.3-.4 9.3-1 3-.8 5.7-2 8-3.8a18.7 18.7 0 0 0 7.9-16.3 19 19 0 0 0-2.5-9.3c-1.6-3-3.7-5.8-6.3-8.5-2.5-2.7-5.2-5.3-8.1-7.8-3-2.5-5.6-5-8.2-7.6a46.7 46.7 0 0 1-6.3-7.7A14.4 14.4 0 0 1 22 34c0-4 1.3-7.2 3.9-9.4 2.6-2.2 6.8-3.3 12.6-3.3a47.8 47.8 0 0 1 8.3.5v-4.4c-.8 0-1.7 0-2.6-.2a32 32 0 0 0-5.6-.3c-6 0-11.1 1.4-15.1 4.1-4 2.8-6 7.1-6 13 0 3.2.9 6.2 2.5 9a45 45 0 0 0 6.3 8.1 118 118 0 0 0 8.2 7.8c2.9 2.5 5.6 5 8.1 7.5 2.6 2.6 4.7 5.2 6.3 8 1.7 2.7 2.5 5.5 2.5 8.4 0 5.5-1.9 9.6-5.5 12.4a24.4 24.4 0 0 1-15.3 4.3 60.2 60.2 0 0 1-15.4-1.7v4.4zM.9 81.8c2.5.8 5 1.4 7.8 1.9a62 62 0 0 0 16.5 1.8c5.2 0 7.8-1.9 7.8-5.7 0-1.5-.8-3-2.4-4.5a71.6 71.6 0 0 0-6-5.1L16.8 64A56.6 56.6 0 0 1 9 56c-2.5-3-4.5-6.2-6-10A31.8 31.8 0 0 1 .4 33.6c0-5.3 1-10 3-14 1.9-4.2 4.5-7.6 8-10.3a36 36 0 0 1 12-6.2C28 1.6 32.8 1 38 1c2.7 0 5.5.1 8.2.4a6846.2 6846.2 0 0 1 14.6 1.8v31.8a125.9 125.9 0 0 0-12.2-.8c-1 0-2 .2-3 .4-.8.3-1.6.7-2.3 1.2a3 3 0 0 0-1 2.4c0 1 .7 2 2.3 3.4l5.6 4.8 7.3 6.3A50.7 50.7 0 0 1 70.5 71a40.7 40.7 0 0 1 0 27c-1.7 4.3-4.1 8.1-7.5 11.3a35.3 35.3 0 0 1-12.8 7.7 55 55 0 0 1-18.5 2.8 112.3 112.3 0 0 1-30.8-4v-34zm115.4-21.4c0-5.5 1-10.5 2.8-15.3a37.2 37.2 0 0 1 36.7-23.8 47.3 47.3 0 0 1 13.7 2c2 .6 3.6 1.3 5 2l2.3-4-5.7-2.2a64.7 64.7 0 0 0-15.3-2.2 45.5 45.5 0 0 0-30.6 11.8A43.1 43.1 0 0 0 112 60.4c0 6.7 1.2 12.7 3.5 18a40.6 40.6 0 0 0 23.9 22.4 49 49 0 0 0 39.2-2.3l-2.3-4.1a38.2 38.2 0 0 1-19.5 5.1 44 44 0 0 1-17-3A36.5 36.5 0 0 1 119 75.7a41.5 41.5 0 0 1-2.7-15.4zm-21.4 0A57.3 57.3 0 0 1 154.7.9a72.2 72.2 0 0 1 41.2 12L178 44.5a60 60 0 0 0-6-3.9 57 57 0 0 0-6.8-2.6 29.9 29.9 0 0 0-18.8.6 24.8 24.8 0 0 0-13 12.6 23.1 23.1 0 0 0 5.5 26.1 25.4 25.4 0 0 0 18 7 31.8 31.8 0 0 0 16.9-4.4c2.2-1.3 4.2-2.7 6-4.5l17.8 31.5c-3 2.5-6.7 4.7-10.9 6.6-3.6 1.6-8 3-13 4.4-5.2 1.4-11 2-17.6 2-8.8 0-17-1.4-24.5-4.2a55.2 55.2 0 0 1-32.1-31c-3-7.3-4.6-15.4-4.6-24.2zM252.5 3.6h27.2l43 113.4H287l-3.7-10.2h-34.4l-3.7 10.2h-35.7l43-113.4zm21.2 78.2L266.1 62l-7.7 20h15.3zm-38.9 21.6l3.2-8.5h56.1l3.3 8.5h4.7l-32.8-86.2H263L230 103.4h4.7zm31.3-82.1l26.5 69.5h-53L266 21.3zm76.1-17.7h66.9v29.8h-30.6v12.5h30v28.3h-30V117h-36.3V3.6zm21.5 99.8V62.1H396v-4h-32.3V21.2h34v-4h-38.4v86.1h4.4zm71.7-99.8h66.8v29.8h-30.6v12.5h30.1v28.3h-30V117h-36.3V3.6zm21.4 99.8V62.1h32.3v-4h-32.3V21.2h34v-4h-38.4v86.1h4.4zm69.2-43a58 58 0 0 1 17.4-42 60 60 0 0 1 65.2-12.8A60 60 0 0 1 645 60.4a58 58 0 0 1-17.4 42 60 60 0 0 1-65.2 12.8A60 60 0 0 1 526 60.4zm16 0a42.4 42.4 0 0 0 12.8 30.8 44 44 0 0 0 30.7 12.7 42.4 42.4 0 0 0 30.8-12.7A44 44 0 0 0 629 60.4a42.4 42.4 0 0 0-12.7-30.8A44 44 0 0 0 585.5 17a42.4 42.4 0 0 0-30.8 12.7A44 44 0 0 0 542 60.4zm19.7 0a23.1 23.1 0 0 0 7 16.8 24 24 0 0 0 16.8 7 23.1 23.1 0 0 0 16.9-7 24 24 0 0 0 7-16.8 23.1 23.1 0 0 0-7-16.8 24 24 0 0 0-16.9-7 23.1 23.1 0 0 0-16.8 7 24 24 0 0 0-7 16.8zm23.8 39A37.8 37.8 0 0 1 558 88a39.7 39.7 0 0 1-11.5-27.6A37.8 37.8 0 0 1 558 32.8a39.7 39.7 0 0 1 27.6-11.5 37.8 37.8 0 0 1 27.6 11.5 39.7 39.7 0 0 1 11.5 27.6A37.8 37.8 0 0 1 613.1 88a39.7 39.7 0 0 1-27.6 11.5zm85.9-95.8H709v83.7h31.3V117h-69V3.6zm59.5 99.8v-4h-38.1V17.1h-4.4v86.2h42.5zm32.4 13.6V3.6h31.5c10.6 0 20.1 1.2 28.5 3.6a57 57 0 0 1 21 10.7c5.8 4.8 10.1 10.7 13.1 17.8 3 7 4.5 15.2 4.5 24.5s-1.5 17.5-4.5 24.6c-3 7-7.3 13-13 17.8a58 58 0 0 1-21.1 10.7c-8.4 2.5-17.9 3.7-28.5 3.7h-31.5zm21.5-17.7v-78h10c14.4 0 25.6 3.2 33.6 9.8 8 6.5 12 16.2 12 29.1 0 13-4 22.7-12 29.3-8 6.5-19.2 9.8-33.6 9.8h-10zm-4.5 4.1h14.5c16.5 0 29-3.8 37.5-11.3a40.5 40.5 0 0 0 12.6-31.9c0-13.7-4.2-24.3-12.6-31.8-8.5-7.5-21-11.2-37.5-11.2h-14.5v86.2zm19.3-18.7c8.5 0 15-2 19.7-6 4.6-4 7-10.2 7-18.5s-2.4-14.4-7-18.3c-4.7-4-11.2-6-19.8-6v48.8z"/>
  </defs>
  <g fill="none" fill-rule="evenodd">
    <rect width="1196" height="247" fill="#FFDADA" rx="15"/>
    <g opacity=".9" transform="translate(40 63)">
      <mask id="b" fill="#fff">
        <use xlink:href="#a"/>
      </mask>
      <use fill="#000" xlink:href="#a"/>
      <g fill-rule="nonzero" mask="url(#b)">
        <path fill="#A6545E" d="M11 55.9h430v15H11z"/>
        <path fill="#A4505B" d="M24.7 300.8L420.5-197l11.8 9.4L36.4 310z"/>
        <path fill="#A4505B" d="M413.3 311L17.4-186.6l11.8-9.4L425 301.7z"/>
        <path fill="#D56C79" d="M111 313.2V-207h30v520.2zM211 313.2V-207h30v520.2zM11 313.2V-207h30v520.2zM311 313.2V-207h30v520.2z"/>
      </g>
      <g fill-rule="nonzero" mask="url(#b)">
        <path fill="#A6545E" d="M411 55.9h430v15H411z"/>
        <path fill="#A4505B" d="M424.7 300.8L820.5-197l11.8 9.4L436.4 310z"/>
        <path fill="#A4505B" d="M813.3 311L417.4-186.6l11.8-9.4L825 301.7z"/>
        <path fill="#D56C79" d="M511 313.2V-207h30v520.2zM611 313.2V-207h30v520.2zM711 313.2V-207h30v520.2zM811 313.2V-207h30v520.2zM411 313.2V-207h30v520.2z"/>
      </g>
    </g>
    <path fill="#000" fill-rule="nonzero" d="M931 125.7c0 10.2 1 19.4 2.8 27.6a82.2 82.2 0 0 0 8 21.4c3.3 6 7.6 11.4 12.8 16a73.2 73.2 0 0 0 16.8 11.3c6 2.9 13 5.2 20.8 7 7.8 1.9 15.7 3.2 23.8 4a299.6 299.6 0 0 0 53.6 0c8-.8 16-2.1 23.8-4a102 102 0 0 0 21-7c6-3 11.7-6.7 16.9-11.3 5.2-4.6 9.5-10 13-16a81 81 0 0 0 7.9-21.4c1.9-8.2 2.8-17.4 2.8-27.6 0-18-6-33.7-18.2-47a53.4 53.4 0 0 0 3.4-15.4c.4-4.1.3-8.9-.6-14.3a75 75 0 0 0-4.6-16.5l-1.7-.4c-1.2-.2-3-.1-5.7.2a65 65 0 0 0-23 7.7c-5.6 2.8-11.5 6.3-17.7 10.5-10.7-2.9-25.3-4.4-44-4.4a173 173 0 0 0-43.8 4.4A151 151 0 0 0 981.3 40a89.1 89.1 0 0 0-13.5-5.7 52 52 0 0 0-15-2.2c-.7 0-1.3.2-1.8.4a75.2 75.2 0 0 0-4.6 16.5 53.9 53.9 0 0 0 1 23.8c.5 2.2 1.1 4.2 1.8 6a67.2 67.2 0 0 0-18.2 47zm27.5 27.5c0-10.5 4.8-20.1 14.3-28.9 2.9-2.6 6.2-4.6 10-6 3.8-1.3 8.1-2 12.9-2.2 4.8-.2 9.3-.2 13.7 0l16.2 1.1a249.4 249.4 0 0 0 33.3 0l16.2-1c4.4-.3 9-.3 13.8-.1 4.8.1 9 1 12.9 2.3 3.8 1.3 7 3.3 10 6a38.3 38.3 0 0 1 14.3 28.8c0 6.3-.8 11.9-2.4 16.7-1.5 4.9-3.6 9-6 12.2-2.4 3.3-5.8 6.1-10.2 8.4a71 71 0 0 1-28.6 8.2c-6.4.7-12.2 1.1-17.3 1.3a695.7 695.7 0 0 1-38.6 0c-5.1-.2-10.9-.6-17.4-1.3a71.1 71.1 0 0 1-28.6-8.2c-4.3-2.3-7.7-5-10.1-8.4a41.9 41.9 0 0 1-6-12.2 54.2 54.2 0 0 1-2.4-16.7zM1071 151c0 11.6 6.3 21 14 21s14-9.4 14-21-6.3-21-14-21-14 9.4-14 21zm-84 0c0 11.6 6.3 21 14 21s14-9.4 14-21-6.3-21-14-21-14 9.4-14 21z" opacity=".9"/>
  </g>
</svg>
