<svg viewBox="0 0 1106 951" xmlns="http://www.w3.org/2000/svg"><g fill-rule="nonzero" fill="none"><path d="M1105 128.2v81l-94.8 106.1c-23.9 17-55.2 38.1-81 24.1L761 190l293.7-98a38.1 38.1 0 0150.3 36.2zM667.2 376l-2.3 4.8-209.4 69.9a112.6 112.6 0 00-36.4 20.1L225 629.8l283.7 249c19.5 12.6 166-15 188-22.4l248.7-127.7c23-7.6 68.9-44 76.5-67l6.4-89.4c16.4-49.6-24.3-57.5-76.5-57.5L899 471.1m-124.1 19.8L708 424.1m112.5 104.2h-.2M1105 820.9V955H722l65.1-92.2a78 78 0 0134.3-34.3L940.7 769c29.5-14.8 103.4-85.7 126.8-62.3l37.5 114.2zM569 955H-5v-10.9c0-39.5 24.4-75 61.4-89L243.7 783 569 955z" fill="#35495E"/><path d="M1105 208.2V821l-37.5-37.6a76.5 76.5 0 00-88.4-14.3L860 828.6a78 78 0 00-34.2 34.3l-46 92.1H492.9L244.1 782.6 225 629.5l294.4 190.7a75.7 75.7 0 0065.6 8.2l330.6-110.3a76.3 76.3 0 0048.4-48.4l11.9-35.3c7.7-23.3 3.8-49-10.6-69-5.8-8-105.9-69.6-300.3-184.9 18.4-49.6 60.5-54.4 48.8-97.9l46.9-93.6L929 281c25.8 14 57.2 12 81.1-5l94.9-67.8z" fill="#2C3E50"/><path d="M971.7 215.3l-13-31.1-105.8-5.6a10.5 10.5 0 00-11 10L832 376.5a10.5 10.5 0 0010 11l124.4 6.6c2.3 0 4.5-.6 6.2-1.7l8.9.4 9-169.9-18.8-7.6z" fill="#F3C8C8"/><path d="M990.4 223L986 221l-.4 8.1-8.2 154.9a10.5 10.5 0 01-11 10l14.3.7c5.8.3 10.7-4.1 11-10L1000 230l-9.5-7z" fill="#E5B9B9"/><g fill="#B97777"><path d="M973.1 257.5l-109.3-5.7a3.2 3.2 0 11.4-6.3l109.3 5.7a3.2 3.2 0 01-.4 6.3zM971.7 285.6l-109.3-5.8a3.2 3.2 0 11.3-6.3l109.3 5.8a3.2 3.2 0 01-.3 6.3zM970.2 313.6l-109.3-5.7a3.2 3.2 0 11.3-6.3l109.3 5.7a3.2 3.2 0 01-.3 6.3zM968.7 341.6L859.4 336a3.2 3.2 0 11.4-6.3l109.2 5.7a3.2 3.2 0 01-.3 6.3z"/></g><path d="M966.9 228.2l33 1.7-41.3-45.7-1.7 33a10.5 10.5 0 0010 11z" fill="#D6A2A2"/><g><path d="M527.7 532l-24.8-30.9-121.2 28a12.4 12.4 0 00-9.2 14.8l49.7 215.3a12.4 12.4 0 0014.8 9.3l142.6-33c2.6-.5 4.8-2 6.5-3.8l10.1-2.4-45-194.7-23.5-2.6z" fill="#E3B8B8"/><path d="M551.3 534.6l-5.6-.6 2.1 9.3 41 177.5a12.4 12.4 0 01-9.2 14.8l16.3-3.8a12.4 12.4 0 009.3-14.8l-41-177.5-13-5z" fill="#D8ABAB"/><g fill="#B97777"><path d="M543 579.3l-125.3 28.9a3.7 3.7 0 11-1.6-7.2l125.2-29a3.7 3.7 0 011.7 7.3zM550.4 611.4L425 640.3a3.7 3.7 0 11-1.6-7.2l125.2-29a3.7 3.7 0 011.7 7.3zM557.8 643.5l-125.2 29a3.7 3.7 0 11-1.7-7.3l125.2-29a3.7 3.7 0 011.7 7.3zM565.2 675.6l-125.2 29a3.7 3.7 0 11-1.7-7.3l125.2-29a3.7 3.7 0 011.7 7.3z"/></g><path d="M526.4 548.2l37.8-8.7L503 501l8.7 37.8a12.4 12.4 0 0014.8 9.3z" fill="#D6A2A2"/></g><g><path d="M1000.7 557.8l.2-44.5-125.4-61.1a13.9 13.9 0 00-18.5 6.3L748.3 681.4a13.9 13.9 0 006.4 18.5l147.5 72c2.7 1.3 5.7 1.7 8.5 1.2l10.5 5.1 98.3-201.5-18.8-19z" fill="#D2A6A6"/><path d="M1019.5 576.7l-4.5-4.5-4.7 9.6-89.6 183.7a13.9 13.9 0 01-18.5 6.4l17 8.3c6.8 3.3 15.1.5 18.5-6.4l89.6-183.7-7.8-13.4z" fill="#C79B9B"/><g fill="#B97777"><path d="M980.7 609.8L851 546.6a4.2 4.2 0 113.6-7.5l129.6 63.2a4.2 4.2 0 01-3.6 7.5zM964.5 643l-129.7-63.2a4.2 4.2 0 113.7-7.5l129.6 63.2a4.2 4.2 0 01-3.6 7.5zM948.3 676.2L818.6 613a4.2 4.2 0 113.7-7.5l129.6 63.3a4.2 4.2 0 01-3.6 7.4zM932 709.5l-129.6-63.2a4.2 4.2 0 113.7-7.5L935.7 702a4.2 4.2 0 01-3.7 7.5z"/></g><path d="M988.2 571l39.1 19-26.4-76.7-19.1 39.1a13.9 13.9 0 006.4 18.6z" fill="#BF8C8C"/></g><g><path d="M527.8 163.7l-98-50L453 68A17.8 17.8 0 01477 60L543.4 94a17.7 17.7 0 017.8 23.8l-23.4 45.9z" fill="#544D4D"/><path d="M497.6 261.4L755 392.2c6 3.1 12.5-3.3 9.5-9.3l-23.3-46.2a215.3 215.3 0 00-94.6-94.8l-110.4-56-38.6 75.5zM367 194.8L109.7 63.5c-6-3.1-4.7-12.1 2-13.2l51-8.3c45.2-7.3 91.5 0 132.3 20.8l110.3 56.4-38.5 75.6z" fill="#B7AAAA"/><path fill="#DDB3B3" d="M380.8 247.5l66 33.7L252 663.5 186 630z"/><path d="M447.3 282.2l37.4-8.9c5-1.1 9.3-4.5 11.6-9l39-76.6c4.5-8.7 1-19.2-7.6-23.6L428 113.3c-8.6-4.4-19.2-1-23.6 7.7l-39 76.3a17.5 17.5 0 00-.4 15.1l16.1 36 66.3 33.8z" fill="#C29898"/><path d="M108 952.2l-69.4-35.4a14 14 0 01-6.1-18.8l133.4-261.8a14 14 0 0118.8-6.2l69.4 35.4a14 14 0 016.1 18.8L126.8 946.1a14 14 0 01-18.8 6z" fill="#544D4D"/></g><g fill="#FFDC64"><path d="M1037 202l-24.2-30.1 15-35.7a3 3 0 00-4-4l-36.1 13.6-29.3-25.2a3 3 0 00-5.1 2.5l1.8 38.6-33 20a3 3 0 00.7 5.7l37.3 10.2 9 37.6a3 3 0 005.5 1l21.2-32.3 38.6 3.2a3 3 0 002.6-5z"/></g><g fill="#FFDC64"><path d="M1042 495.2l-13-43.2 31.8-32.1c2.3-2.3.7-6-2.5-6.2l-45-1-20.8-40.1a3.6 3.6 0 00-6.6.4l-15 42.7-44.5 7.3a3.6 3.6 0 00-1.6 6.4l36 27.3-6.9 44.7c-.5 3.1 3 5.3 5.6 3.5l37.1-25.7 40.4 20.3c2.8 1.4 6-1.3 5-4.3z"/></g><g fill="#FFDC64"><path d="M450 860.3l5.7-61.8 57-24.6a5 5 0 000-9l-57-24.6-5.7-61.8a5 5 0 00-8.7-2.8l-41 46.6-60.5-13.6a5 5 0 00-5.3 7.3l31.6 53.4-31.6 53.4a5 5 0 005.3 7.3l60.5-13.6 41 46.6a5 5 0 008.7-2.8z"/></g><g fill="#FFDC64"><path d="M746.2 509.8l19.8-29 34.7 3.3c2.4.3 4-2.5 2.5-4.5L782 452l14.1-32.2c1-2.2-1.2-4.6-3.5-3.7l-32.8 12-26-23.3c-1.8-1.6-4.7-.3-4.6 2.2l.9 35-30.2 17.8c-2.1 1.3-1.8 4.5.6 5.1l33.4 9.7 7.3 34.3c.5 2.4 3.6 3 5 1z"/></g></g></svg>